#N canvas 1164 191 206 392 10;
#N canvas 655 77 409 704 kick 0;
#X obj 101 101 cnv 8 118 238 empty empty kick 72 220 0 18 -224693 -45772
0;
#X obj 111 178 hsl 100 8 0 1 0 1 empty empty master -2 -6 0 10 -45772
-231435 -133087 200 1;
#X obj 166 118 hsl 45 8 0.1 2 0 1 empty empty decay -2 -5 0 8 -45772
-231435 -133087 1600 1;
#X obj 110 196 bng 100 50 50 0 empty empty ╬ಠ益ಠ 20 56 0 24
-45772 -231435 -45772;
#N canvas 64 177 190 242 eg1+2 0;
#X obj 34 27 inlet;
#X text 32 9 gate;
#X obj 78 27 inlet;
#X text 125 10 decay;
#X obj 108 81 f;
#X obj 123 54 * 500;
#X obj 123 27 inlet;
#X obj 63 108 pack f f;
#X obj 34 53 bng 15 250 50 0 empty empty empty 17 7 0 10 -262144 -1
-1;
#X obj 63 81 f;
#X text 76 8 level;
#X msg 22 181 1;
#X obj 63 162 vline~;
#X obj 63 202 outlet~;
#X msg 63 135 \$1 0 \, 0 \$2;
#X connect 0 0 8 0;
#X connect 2 0 9 1;
#X connect 4 0 7 1;
#X connect 5 0 4 1;
#X connect 6 0 5 0;
#X connect 7 0 14 0;
#X connect 8 0 9 0;
#X connect 8 0 4 0;
#X connect 9 0 7 0;
#X connect 11 0 13 0;
#X connect 12 0 13 0;
#X connect 14 0 12 0;
#X restore 69 482 pd eg1+2;
#N canvas 334 177 190 243 eg3 0;
#X obj 34 27 inlet;
#X text 32 9 gate;
#X obj 78 27 inlet;
#X text 125 10 decay;
#X floatatom 116 179 5 0 0 0 - - -;
#X obj 63 162 line;
#X obj 108 81 f;
#X obj 63 189 outlet;
#X obj 123 54 * 500;
#X obj 123 27 inlet;
#X msg 63 135 \$1 0 \, 0 \$2;
#X obj 63 108 pack f f;
#X obj 34 53 bng 15 250 50 0 empty empty empty 17 7 0 10 -262144 -1
-1;
#X obj 63 81 f;
#X text 76 8 level;
#X obj 78 54 * 440;
#X connect 0 0 12 0;
#X connect 2 0 15 0;
#X connect 5 0 4 0;
#X connect 5 0 7 0;
#X connect 6 0 11 1;
#X connect 8 0 6 1;
#X connect 9 0 8 0;
#X connect 10 0 5 0;
#X connect 11 0 10 0;
#X connect 12 0 13 0;
#X connect 12 0 6 0;
#X connect 13 0 11 0;
#X connect 15 0 13 1;
#X restore 128 481 pd eg3;
#X obj 111 138 hsl 45 8 0 1 0 1 empty empty mod_depth -2 -5 0 8 -45772
-231435 -133087 2100 1;
#X obj 166 138 hsl 45 8 0.1 0.5 0 1 empty empty mod_time -2 -5 0 8
-45772 -231435 -133087 600 1;
#N canvas 374 507 275 278 pulse_gen 0;
#X obj 89 -996 noise~;
#X obj 79 -969 *~;
#X obj 135 -985 vline~;
#X obj 135 -1064 bng 15 50 50 0 empty empty empty 17 7 0 10 -262144
-1 -1;
#X obj 57 -996 osc~;
#X obj 135 -1089 inlet;
#X obj 77 -862 outlet~;
#X obj 135 -1034 pack b f;
#X msg 135 -1009 1 0 \, 0 \$2;
#X obj 183 -1063 hsl 32 15 0 32 0 1 empty empty empty -2 -8 0 10 -262144
-1 -1 100 1;
#X text 136 -1106 gate;
#X obj 78 -938 *~;
#X obj 182 -1089 inlet;
#X text 180 -1106 level;
#X obj 77 -913 lop~ 466;
#X obj 78 -887 *~ 2;
#X connect 0 0 1 0;
#X connect 1 0 11 0;
#X connect 2 0 1 1;
#X connect 3 0 7 0;
#X connect 4 0 1 0;
#X connect 5 0 3 0;
#X connect 7 0 8 0;
#X connect 8 0 2 0;
#X connect 9 0 7 1;
#X connect 11 0 14 0;
#X connect 12 0 11 1;
#X connect 14 0 15 0;
#X connect 15 0 6 0;
#X restore 175 523 pd pulse_gen;
#N canvas 218 405 276 278 osc 0;
#X obj 116 -843 osc~;
#X obj 69 -958 inlet;
#X text 71 -977 gate;
#X obj 116 -959 inlet;
#X text 114 -978 pitch;
#X obj 162 -960 inlet;
#X text 160 -979 freq;
#X obj 117 -763 outlet~;
#X obj 116 -936 mtof;
#X obj 116 -880 +;
#X floatatom 75 -860 5 0 0 0 - - -;
#X msg 160 -869 0.25;
#X obj 154 -819 vline~;
#X obj 116 -803 *~;
#X msg 207 -862 0 0 \, 1 1;
#X connect 0 0 13 0;
#X connect 1 0 9 0;
#X connect 1 0 11 0;
#X connect 1 0 12 0;
#X connect 1 0 14 0;
#X connect 3 0 8 0;
#X connect 5 0 9 0;
#X connect 8 0 9 1;
#X connect 9 0 0 0;
#X connect 9 0 10 0;
#X connect 11 0 0 1;
#X connect 12 0 13 1;
#X connect 13 0 7 0;
#X connect 14 0 12 0;
#X restore 125 523 pd osc;
#X obj 111 118 hsl 45 8 24 48 0 1 empty empty pitch -2 -5 0 8 -45772
-231435 -133087 1400 1;
#N canvas 811 502 275 278 noise_gen 0;
#X obj 96 -880 noise~;
#X obj 96 -848 lop~ 466;
#X obj 97 -816 *~;
#X obj 97 -786 outlet~;
#X obj 112 -913 inlet;
#X text 112 -932 level;
#X floatatom 166 -896 5 0 0 0 - - -;
#X connect 0 0 1 0;
#X connect 1 0 2 0;
#X connect 2 0 3 0;
#X connect 4 0 2 1;
#X connect 4 0 6 0;
#X restore 260 522 pd noise_gen;
#X obj 166 158 hsl 45 8 0 0.25 0 1 empty empty noise -2 -5 0 8 -45772
-231435 -133087 1100 1;
#X obj 111 158 hsl 45 8 0 1 0 1 empty empty click -2 -5 0 8 -45772
-231435 -133087 3400 1;
#X obj 161 583 *~;
#X obj 100 428 unpack g f f f f f f f;
#X obj 100 377 pack g f f f f f f f;
#X obj 160 660 outlet~;
#X obj 100 50 loadbang;
#X obj 161 635 tanh~;
#X obj 160 610 *~;
#X obj 204 595 hsl 64 15 1 10 0 1 empty empty SECRET_GABBER_SLIDER
-2 -8 0 10 -262144 -1 -1 400 1;
#X text 273 593 >>>GABBER;
#X obj 101 331 cnv 8 118 8 empty empty empty 20 12 0 14 -231435 -66577
0;
#X obj 34 69 unpack b;
#X obj 34 28 inlet;
#X connect 1 0 16 1;
#X connect 2 0 16 2;
#X connect 3 0 16 0;
#X connect 3 0 4 0;
#X connect 4 0 14 1;
#X connect 5 0 9 2;
#X connect 6 0 16 3;
#X connect 7 0 16 4;
#X connect 8 0 14 0;
#X connect 9 0 14 0;
#X connect 10 0 16 5;
#X connect 11 0 14 0;
#X connect 12 0 16 7;
#X connect 13 0 16 6;
#X connect 14 0 20 0;
#X connect 15 0 5 0;
#X connect 15 0 9 0;
#X connect 15 0 8 0;
#X connect 15 1 4 1;
#X connect 15 2 4 2;
#X connect 15 3 5 1;
#X connect 15 4 5 2;
#X connect 15 5 9 1;
#X connect 15 6 8 1;
#X connect 15 7 11 0;
#X connect 16 0 15 0;
#X connect 18 0 16 0;
#X connect 19 0 17 0;
#X connect 20 0 19 0;
#X connect 21 0 20 1;
#X connect 24 0 3 0;
#X connect 24 0 4 0;
#X connect 25 0 24 0;
#X coords 0 -1 1 1 120 240 1 100 100;
#X restore 50 -285 pd kick;
#X obj 48 -26 dac~;
#X obj 50 -326 r tick;
#X obj 50 -307 pack b;
#X connect 0 0 1 0;
#X connect 0 0 1 1;
#X connect 2 0 3 0;
#X connect 3 0 0 0;
#X coords 0 392 1 391 120 240 0;
