#N canvas 1074 193 354 132 10;
#N canvas 288 334 523 467 bng_seq_16 0;
#X obj 227 44 r tick;
#X obj 82 214 cnv 15 340 100 empty empty empty 20 12 0 14 -233017 -66577
0;
#X obj 94 230 outlet;
#X obj 111 257 outlet;
#X obj 129 284 outlet;
#X obj 147 230 outlet;
#X obj 165 257 outlet;
#X obj 182 284 outlet;
#X obj 200 230 outlet;
#X obj 218 257 outlet;
#X obj 236 284 outlet;
#X obj 253 230 outlet;
#X obj 271 257 outlet;
#X obj 289 284 outlet;
#X obj 307 230 outlet;
#X obj 324 257 outlet;
#X obj 342 284 outlet;
#X obj 360 230 outlet;
#X obj 94 119 i;
#X obj 126 119 + 1;
#X obj 94 141 % 16;
#X text 154 119 Counter;
#X msg 127 94 -1;
#X obj 94 169 sel 0 1 2 3 4 5 6 7 8 9 10 11 12 13 14 15;
#X obj 258 133 outlet;
#X obj 101 347 cnv 15 298 50 empty empty empty 20 12 0 14 -259361 -66577
0;
#X obj 101 347 cnv 15 272 44 empty empty BNG_SEQ_16 20 12 0 14 -83481
-228856 0;
#X obj 118 378 bng 17 80 50 0 empty empty empty 17 7 0 10 -261234 -261682
-1;
#X obj 101 378 bng 17 80 50 0 empty empty empty 17 7 0 10 -258081 -262144
-1;
#X obj 135 378 bng 17 80 50 0 empty empty empty 17 7 0 10 -260145 -261234
-1;
#X obj 152 378 bng 17 80 50 0 empty empty empty 17 7 0 10 -261234 -261682
-1;
#X obj 186 378 bng 17 80 50 0 empty empty empty 17 7 0 10 -261234 -261682
-1;
#X obj 169 378 bng 17 80 50 0 empty empty empty 17 7 0 10 -258081 -262144
-1;
#X obj 203 378 bng 17 80 50 0 empty empty empty 17 7 0 10 -260145 -261234
-1;
#X obj 220 378 bng 17 80 50 0 empty empty empty 17 7 0 10 -261234 -261682
-1;
#X obj 254 378 bng 17 80 50 0 empty empty empty 17 7 0 10 -261234 -261682
-1;
#X obj 237 378 bng 17 80 50 0 empty empty empty 17 7 0 10 -258081 -262144
-1;
#X obj 271 378 bng 17 80 50 0 empty empty empty 17 7 0 10 -260145 -261234
-1;
#X obj 288 378 bng 17 80 50 0 empty empty empty 17 7 0 10 -261234 -261682
-1;
#X obj 322 378 bng 17 80 50 0 empty empty empty 17 7 0 10 -261234 -261682
-1;
#X obj 305 378 bng 17 80 50 0 empty empty empty 17 7 0 10 -258081 -262144
-1;
#X obj 339 378 bng 17 80 50 0 empty empty empty 17 7 0 10 -260145 -261234
-1;
#X obj 356 378 bng 17 80 50 0 empty empty empty 17 7 0 10 -261234 -261682
-1;
#X obj 328 356 tgl 15 0 empty empty sync_to_master -72 10 0 8 -107926
-261185 -191407 1 1;
#X obj 227 96 spigot;
#X obj 283 96 inlet;
#X obj 344 94 spigot;
#X obj 400 94 inlet;
#X obj 344 42 r reset;
#X obj 259 331 cnv 15 140 15 empty empty reset_in_^ 88 8 0 8 -162280
-228856 0;
#X obj 101 331 cnv 15 160 15 empty empty ^_tick_in 4 8 0 8 -162280
-228856 0;
#X obj 348 356 bng 15 50 50 0 empty empty empty 17 7 0 10 -83481 -261201
-1;
#X obj 370 133 outlet;
#X obj 374 381 cnv 15 10 15 empty empty t 4 8 0 9 -259361 -261234 0
;
#X obj 374 370 cnv 15 20 15 empty empty thru 3 8 0 9 -259361 -261234
0;
#X obj 384 381 cnv 15 10 15 empty empty r 8 8 0 9 -259361 -261234 0
;
#X obj 94 45 r \$0-bs_tick;
#X connect 0 0 44 0;
#X connect 18 0 19 0;
#X connect 18 0 20 0;
#X connect 19 0 18 1;
#X connect 20 0 23 0;
#X connect 22 0 18 0;
#X connect 23 0 2 0;
#X connect 23 0 28 0;
#X connect 23 0 51 0;
#X connect 23 1 3 0;
#X connect 23 1 27 0;
#X connect 23 2 4 0;
#X connect 23 2 29 0;
#X connect 23 3 5 0;
#X connect 23 3 30 0;
#X connect 23 4 6 0;
#X connect 23 4 51 0;
#X connect 23 4 32 0;
#X connect 23 5 7 0;
#X connect 23 5 31 0;
#X connect 23 6 8 0;
#X connect 23 6 33 0;
#X connect 23 7 9 0;
#X connect 23 7 34 0;
#X connect 23 8 10 0;
#X connect 23 8 51 0;
#X connect 23 8 36 0;
#X connect 23 9 11 0;
#X connect 23 9 35 0;
#X connect 23 10 12 0;
#X connect 23 10 37 0;
#X connect 23 11 13 0;
#X connect 23 11 38 0;
#X connect 23 12 14 0;
#X connect 23 12 51 0;
#X connect 23 12 40 0;
#X connect 23 13 15 0;
#X connect 23 13 39 0;
#X connect 23 14 16 0;
#X connect 23 14 41 0;
#X connect 23 15 17 0;
#X connect 23 15 42 0;
#X connect 43 0 44 1;
#X connect 43 0 46 1;
#X connect 44 0 18 0;
#X connect 44 0 24 0;
#X connect 45 0 18 0;
#X connect 45 0 24 0;
#X connect 46 0 22 0;
#X connect 46 0 52 0;
#X connect 47 0 22 0;
#X connect 47 0 52 0;
#X connect 48 0 46 0;
#X connect 56 0 18 0;
#X coords 0 -1 1 1 300 67 2 100 330;
#X restore 30 27 pd bng_seq_16;
