#N canvas 607 239 355 94 10;
#N canvas 197 177 906 723 metro_clock 0;
#X obj 31 19 cnv 15 840 170 empty empty Input 20 12 0 14 -233017 -66577
0;
#X obj 243 155 s play;
#X obj 299 155 s continue;
#X obj 383 155 s stop;
#X obj 439 155 s bpm;
#X obj 271 91 cnv 15 318 53 empty empty empty 20 12 0 14 -83481 -66577
0;
#X obj 328 100 bng 35 250 50 0 empty empty CONT. 4 17 0 10 -261505
-262144 -1;
#X obj 365 100 bng 35 250 50 0 empty empty STOP 5 17 0 10 -250716 -1
-262144;
#X obj 402 100 nbx 5 35 10 500 0 1 empty empty BPM 64 19 0 20 -212212
-66577 -66577 120 256;
#X obj 291 100 bng 35 250 50 0 empty empty PLAY 5 17 0 10 -163783 -262144
-1;
#X obj 511 100 tgl 35 1 empty empty Master 0 17 0 10 -138547 -51199
-1 0 1;
#X obj 556 119 bng 15 50 50 0 empty empty empty 17 7 0 10 -83481 -261137
-1;
#X obj 556 37 r tick;
#X obj 609 37 r reset;
#N canvas 892 521 370 297 mod16 0;
#X obj 13 178 cnv 15 340 100 empty empty empty 20 12 0 14 -233017 -66577
0;
#X obj 25 194 outlet;
#X obj 42 221 outlet;
#X obj 60 248 outlet;
#X obj 78 194 outlet;
#X obj 96 221 outlet;
#X obj 113 248 outlet;
#X obj 131 194 outlet;
#X obj 149 221 outlet;
#X obj 167 248 outlet;
#X obj 184 194 outlet;
#X obj 202 221 outlet;
#X obj 220 248 outlet;
#X obj 238 194 outlet;
#X obj 255 221 outlet;
#X obj 273 248 outlet;
#X obj 291 194 outlet;
#X obj 25 93 i;
#X obj 57 93 + 1;
#X obj 25 115 % 16;
#X text 85 93 Counter;
#X msg 172 64 -1;
#X obj 13 15 cnv 15 340 40 empty empty empty 20 12 0 14 -233017 -66577
0;
#X obj 25 26 inlet;
#X text 66 25 Incoming ticks;
#X obj 172 26 inlet;
#X text 211 25 Reset counter;
#X obj 25 143 sel 0 1 2 3 4 5 6 7 8 9 10 11 12 13 14 15;
#X connect 17 0 18 0;
#X connect 17 0 19 0;
#X connect 18 0 17 1;
#X connect 19 0 27 0;
#X connect 21 0 17 0;
#X connect 23 0 17 0;
#X connect 25 0 21 0;
#X connect 27 0 1 0;
#X connect 27 1 2 0;
#X connect 27 2 3 0;
#X connect 27 3 4 0;
#X connect 27 4 5 0;
#X connect 27 5 6 0;
#X connect 27 6 7 0;
#X connect 27 7 8 0;
#X connect 27 8 9 0;
#X connect 27 9 10 0;
#X connect 27 10 11 0;
#X connect 27 11 12 0;
#X connect 27 12 13 0;
#X connect 27 13 14 0;
#X connect 27 14 15 0;
#X connect 27 15 16 0;
#X coords 0 0 1 1 85 60 0;
#X restore 556 64 pd mod16;
#X obj 621 209 cnv 15 250 200 empty empty Clock_Metro 20 12 0 14 -260984
-66577 0;
#X obj 659 364 s clock;
#X obj 659 337 metro;
#X obj 351 209 cnv 15 250 200 empty empty Tick_Metro 20 12 0 14 -261289
-66577 0;
#X obj 389 364 s tick;
#X obj 389 337 metro;
#X obj 31 209 cnv 15 300 480 empty empty Clock 20 12 0 14 -208803 -66577
0;
#X msg 91 467 60000;
#X floatatom 143 467 5 0 0 0 - - -;
#X obj 91 494 /;
#X floatatom 172 538 5 0 0 0 - - -;
#X msg 162 359 0;
#X obj 91 521 / 4;
#X text 211 538 ms / tick;
#X obj 69 386 t b b;
#X obj 101 440 t b b;
#X obj 153 440 r bpm;
#X obj 139 586 / 6;
#X floatatom 178 603 5 0 0 0 - - -;
#X text 217 603 ms / clock;
#X obj 101 332 s reset;
#X obj 69 278 r play;
#X obj 162 332 r stop;
#X obj 79 359 r continue;
#X obj 69 305 t b b;
#X obj 351 429 cnv 15 520 260 empty empty MIDI_Sync_Out 20 12 0 14
-163456 -66577 0;
#X obj 429 648 midiout;
#X msg 429 503 248;
#X obj 429 476 r clock;
#X obj 527 476 r play;
#X msg 527 503 250;
#X obj 625 476 r continue;
#X msg 625 503 251;
#X obj 723 476 r stop;
#X msg 723 503 252;
#X obj 429 621 spigot;
#X obj 162 386 s \$0_mstop;
#X obj 69 413 s \$0_mbang;
#X obj 91 562 s \$0_mtick;
#X obj 139 627 s \$0_mclock;
#X obj 389 256 r \$0_mbang;
#X obj 426 283 r \$0_mstop;
#X obj 421 310 r \$0_mtick;
#X obj 659 256 r \$0_mbang;
#X obj 696 283 r \$0_mstop;
#X obj 691 310 r \$0_mclock;
#X obj 429 530 s \$0_midiout;
#X obj 527 530 s \$0_midiout;
#X obj 625 530 s \$0_midiout;
#X obj 723 530 s \$0_midiout;
#X obj 429 567 r \$0_midiout;
#X obj 488 155 s \$0_send_master_sync;
#X obj 468 594 r \$0_send_master_sync;
#X connect 6 0 2 0;
#X connect 7 0 3 0;
#X connect 8 0 4 0;
#X connect 9 0 1 0;
#X connect 10 0 66 0;
#X connect 11 0 8 0;
#X connect 12 0 14 0;
#X connect 13 0 14 1;
#X connect 14 0 11 0;
#X connect 14 4 11 0;
#X connect 14 8 11 0;
#X connect 14 12 11 0;
#X connect 17 0 16 0;
#X connect 20 0 19 0;
#X connect 22 0 24 0;
#X connect 23 0 24 1;
#X connect 24 0 27 0;
#X connect 26 0 51 0;
#X connect 27 0 25 0;
#X connect 27 0 32 0;
#X connect 27 0 53 0;
#X connect 29 0 52 0;
#X connect 29 1 30 0;
#X connect 30 0 22 0;
#X connect 30 1 23 0;
#X connect 31 0 23 0;
#X connect 31 0 30 0;
#X connect 32 0 33 0;
#X connect 32 0 54 0;
#X connect 36 0 39 0;
#X connect 37 0 26 0;
#X connect 38 0 29 0;
#X connect 39 0 29 0;
#X connect 39 1 35 0;
#X connect 42 0 61 0;
#X connect 43 0 42 0;
#X connect 44 0 45 0;
#X connect 45 0 62 0;
#X connect 46 0 47 0;
#X connect 47 0 63 0;
#X connect 48 0 49 0;
#X connect 49 0 64 0;
#X connect 50 0 41 0;
#X connect 55 0 20 0;
#X connect 56 0 20 0;
#X connect 57 0 20 1;
#X connect 58 0 17 0;
#X connect 59 0 17 0;
#X connect 60 0 17 1;
#X connect 65 0 50 0;
#X connect 67 0 50 1;
#X coords 0 -1 1 1 320 55 2 270 90;
#X restore 18 16 pd metro_clock;
