#N canvas -5 -5 1920 998 10;
#X floatatom 975 241 5 0 0 2 note - -;
#X floatatom 1007 241 5 0 0 2 vel - -;
#X obj 997 292 bng 15 250 50 0 empty empty note_off 0 -8 0 10 -262144
-1 -1;
#X obj 942 292 bng 15 250 50 0 empty empty note_on 0 -8 0 10 -262144
-1 -1;
#X obj 877 275 moses 1;
#X obj 827 143 notein;
#X obj 827 224 spigot;
#X obj 1069 138 nbx 2 14 0 16 0 0 empty empty listen_for_channel 0
-8 0 10 -262144 -1 -1 0 256;
#X obj 877 224 spigot;
#X obj 910 182 tgl 15 0 empty empty empty 17 7 0 10 -262144 -1 -1 1
1;
#X obj 910 160 expr $f1 == $f2 || $f2 == 0;
#X connect 4 0 2 0;
#X connect 4 1 3 0;
#X connect 5 0 6 0;
#X connect 5 1 8 0;
#X connect 5 2 10 0;
#X connect 6 0 0 0;
#X connect 7 0 10 1;
#X connect 8 0 1 0;
#X connect 8 0 4 0;
#X connect 9 0 8 1;
#X connect 9 0 6 1;
#X connect 10 0 9 0;
