#N canvas 1088 306 389 487 10;
#X obj 61 37 midirealtimein;
#X obj 61 64 == 248;
#X obj 61 91 t b b;
#X obj 88 118 del 500;
#X msg 88 145 0;
#X obj 61 174 f;
#X obj 95 174 + 1;
#X obj 61 201 mod 96;
#X obj 61 228 sel 0 24 48 72;
#X obj 61 255 bng 15 250 50 0 empty empty empty 17 7 0 10 -262144 -1
-1;
#X obj 81 255 bng 15 250 50 0 empty empty empty 17 7 0 10 -262144 -1
-1;
#X obj 101 255 bng 15 250 50 0 empty empty empty 17 7 0 10 -262144
-1 -1;
#X obj 121 255 bng 15 250 50 0 empty empty empty 17 7 0 10 -262144
-1 -1;
#X obj 61 280 t b;
#X obj 61 307 bng 15 250 50 0 empty empty empty 17 7 0 10 -262144 -1
-1;
#X obj 217 41 midirealtimein;
#X obj 217 67 sel 248;
#X obj 217 141 bng 15 250 50 0 empty empty empty 17 7 0 10 -262144
-1 -1;
#X obj 217 118 sel 0;
#X obj 217 93 counter 0 0 5;
#X obj 217 171 s tick;
#X obj 251 347 s bpm;
#X obj 253 252 bng 15 250 50 0 empty empty empty 17 7 0 10 -262144
-1 -1;
#X floatatom 254 306 5 0 0 0 - - -;
#X connect 0 0 1 0;
#X connect 1 0 2 0;
#X connect 2 0 5 0;
#X connect 2 1 3 0;
#X connect 3 0 4 0;
#X connect 4 0 5 1;
#X connect 5 0 6 0;
#X connect 5 0 7 0;
#X connect 6 0 5 1;
#X connect 7 0 8 0;
#X connect 8 0 9 0;
#X connect 8 1 10 0;
#X connect 8 2 11 0;
#X connect 8 3 12 0;
#X connect 9 0 13 0;
#X connect 10 0 13 0;
#X connect 11 0 13 0;
#X connect 12 0 13 0;
#X connect 13 0 14 0;
#X connect 15 0 16 0;
#X connect 16 0 19 0;
#X connect 17 0 20 0;
#X connect 18 0 17 0;
#X connect 19 0 18 0;
#X connect 22 0 23 0;
#X connect 23 0 21 0;
