#N canvas 1938 -242 450 300 10;
#X obj 144 56 midirealtimein;
#X floatatom 144 77 5 0 0 0 - - -, f 5;
#X obj 144 95 sel 248;
#X obj 144 116 f;
#X obj 173 116 + 1;
#X obj 144 137 % 6;
#X obj 144 158 sel 0;
#X obj 144 179 bng 15 250 50 0 empty empty empty 17 7 0 10 -262144
-1 -1;
#X connect 0 0 1 0;
#X connect 1 0 2 0;
#X connect 2 0 3 0;
#X connect 3 0 4 0;
#X connect 3 0 5 0;
#X connect 4 0 3 1;
#X connect 5 0 6 0;
#X connect 6 0 7 0;
