#N canvas 740 197 264 121 10;
#N canvas 602 85 450 559 po_sync 0;
#X obj 148 188 noise~;
#X obj 148 214 *~;
#X obj 204 198 vline~;
#X msg 204 174 1 0 \, 0 10;
#X obj 204 99 bng 15 50 50 0 empty empty empty 17 7 0 10 -262144 -1
-1;
#X obj 204 40 r tick;
#X obj 257 40 r reset;
#N canvas 892 521 370 297 mod16 0;
#X obj 13 178 cnv 15 340 100 empty empty empty 20 12 0 14 -233017 -66577
0;
#X obj 25 194 outlet;
#X obj 42 221 outlet;
#X obj 60 248 outlet;
#X obj 78 194 outlet;
#X obj 96 221 outlet;
#X obj 113 248 outlet;
#X obj 131 194 outlet;
#X obj 149 221 outlet;
#X obj 167 248 outlet;
#X obj 184 194 outlet;
#X obj 202 221 outlet;
#X obj 220 248 outlet;
#X obj 238 194 outlet;
#X obj 255 221 outlet;
#X obj 273 248 outlet;
#X obj 291 194 outlet;
#X obj 25 93 i;
#X obj 57 93 + 1;
#X obj 25 115 % 16;
#X text 85 93 Counter;
#X msg 172 64 -1;
#X obj 13 15 cnv 15 340 40 empty empty empty 20 12 0 14 -233017 -66577
0;
#X obj 25 26 inlet;
#X text 66 25 Incoming ticks;
#X obj 172 26 inlet;
#X text 211 25 Reset counter;
#X obj 25 143 sel 0 1 2 3 4 5 6 7 8 9 10 11 12 13 14 15;
#X connect 17 0 18 0;
#X connect 17 0 19 0;
#X connect 18 0 17 1;
#X connect 19 0 27 0;
#X connect 21 0 17 0;
#X connect 23 0 17 0;
#X connect 25 0 21 0;
#X connect 27 0 1 0;
#X connect 27 1 2 0;
#X connect 27 2 3 0;
#X connect 27 3 4 0;
#X connect 27 4 5 0;
#X connect 27 5 6 0;
#X connect 27 6 7 0;
#X connect 27 7 8 0;
#X connect 27 8 9 0;
#X connect 27 9 10 0;
#X connect 27 10 11 0;
#X connect 27 11 12 0;
#X connect 27 12 13 0;
#X connect 27 13 14 0;
#X connect 27 14 15 0;
#X connect 27 15 16 0;
#X coords 0 0 1 1 85 60 0;
#X restore 204 67 pd mod16;
#X obj 149 239 lop~ 200;
#X obj 204 122 spigot;
#X obj 204 149 bng 15 50 50 0 empty empty empty 17 7 0 10 -262144 -1
-1;
#X obj 159 87 inlet;
#X obj 292 135 vsl 15 128 0 2 0 1 empty empty gain_compensation 0 -9
0 10 -262144 -1 -1 12700 1;
#X obj 150 266 *~;
#X obj 21 37 cnv 15 98 83 empty empty PO_SYNC 10 12 0 18 -83481 -228856
0;
#X obj 99 84 tgl 15 0 empty empty sync_to_master -72 10 0 8 -107926
-261185 -191407 1 1;
#X obj 21 21 cnv 15 98 15 empty empty ^_tick_in 4 8 0 8 -162280 -228856
0;
#X obj 105 24 bng 10 50 50 0 empty empty empty 17 7 0 10 -162280 -261201
-1;
#X obj 21 104 cnv 15 98 15 empty empty channel_output 4 8 0 8 -162280
-228856 0;
#X obj 96 105 nbx 2 14 1 16 0 1 empty empty empty -72 10 0 8 -162280
-228856 -191407 1 256;
#X obj 130 150 osc~;
#X obj 142 320 dac~ 1 2 3 4 5 6 7 8 9 10 11 12 13 14 15 16;
#X obj 149 293 demux~ . . . . . . . . . . . . . . . . .;
#X connect 0 0 1 0;
#X connect 1 0 8 0;
#X connect 2 0 1 1;
#X connect 3 0 2 0;
#X connect 4 0 9 0;
#X connect 5 0 7 0;
#X connect 6 0 7 1;
#X connect 7 0 4 0;
#X connect 7 2 4 0;
#X connect 7 4 4 0;
#X connect 7 6 4 0;
#X connect 7 8 4 0;
#X connect 7 10 4 0;
#X connect 7 12 4 0;
#X connect 7 14 4 0;
#X connect 8 0 13 0;
#X connect 9 0 10 0;
#X connect 10 0 3 0;
#X connect 10 0 17 0;
#X connect 11 0 10 0;
#X connect 12 0 13 1;
#X connect 13 0 22 0;
#X connect 15 0 9 1;
#X connect 19 0 22 0;
#X connect 20 0 1 0;
#X connect 22 1 21 0;
#X connect 22 2 21 1;
#X connect 22 3 21 2;
#X connect 22 4 21 3;
#X connect 22 5 21 4;
#X connect 22 6 21 5;
#X connect 22 7 21 6;
#X connect 22 8 21 7;
#X connect 22 9 21 8;
#X connect 22 10 21 9;
#X connect 22 11 21 10;
#X connect 22 12 21 11;
#X connect 22 13 21 12;
#X connect 22 14 21 13;
#X connect 22 15 21 14;
#X connect 22 16 21 15;
#X coords 0 -1 1 1 100 100 1 20 20;
#X restore 83 9 pd po_sync;
