#N canvas 618 153 450 815 10;
#X obj 201 301 cnv 8 78 18 empty empty empty 20 12 0 14 -162280 -228856
0;
#X obj 68 11 notein;
#X obj 68 38 poly 4 1;
#X obj 68 65 pack f f f;
#X obj 68 92 route 1 2 3 4;
#X obj 68 119 unpack f f f;
#X obj 86 146 unpack f f f;
#X obj 105 173 unpack f f f;
#X obj 124 200 unpack f f f;
#X floatatom 68 173 5 0 0 0 - - -;
#X floatatom 86 199 5 0 0 0 - - -;
#X floatatom 105 225 5 0 0 0 - - -;
#X floatatom 124 251 5 0 0 0 - - -;
#X obj 68 277 pack f f f f;
#X obj 68 304 sort 0;
#X obj 68 331 unpack f f f f;
#X floatatom 68 385 5 0 0 0 - - -;
#X floatatom 95 438 5 0 0 0 - - -;
#X floatatom 122 491 5 0 0 0 - - -;
#X floatatom 149 544 5 0 0 0 - - -;
#X obj 68 605 outlet;
#X obj 95 658 outlet;
#X obj 122 711 outlet;
#X obj 149 764 outlet;
#X floatatom 68 498 5 0 0 0 - - -;
#X floatatom 95 552 5 0 0 0 - - -;
#X floatatom 122 605 5 0 0 0 - - -;
#X floatatom 149 658 5 0 0 0 - - -;
#X obj 24 326 bng 15 250 50 0 empty empty empty 17 7 0 10 -262144 -1
-1;
#X obj 24 299 inlet;
#X msg 68 358 set \$1;
#X msg 95 411 set \$1;
#X msg 122 464 set \$1;
#X msg 149 517 set \$1;
#X obj 95 464 -;
#X obj 122 517 -;
#X obj 149 570 -;
#X obj 24 351 t b b;
#X obj 68 524 spigot;
#X obj 95 578 spigot;
#X obj 122 631 spigot;
#X obj 149 684 spigot;
#X obj 205 305 tgl 10 0 empty empty midi_learn 17 5 0 8 -83481 -256855
-228856 0 1;
#X connect 1 0 2 0;
#X connect 1 1 2 1;
#X connect 2 0 3 0;
#X connect 2 1 3 1;
#X connect 2 2 3 2;
#X connect 3 0 4 0;
#X connect 4 0 5 0;
#X connect 4 1 6 0;
#X connect 4 2 7 0;
#X connect 4 3 8 0;
#X connect 5 0 9 0;
#X connect 6 0 10 0;
#X connect 7 0 11 0;
#X connect 8 0 12 0;
#X connect 9 0 13 0;
#X connect 10 0 13 1;
#X connect 11 0 13 2;
#X connect 12 0 13 3;
#X connect 13 0 14 0;
#X connect 14 0 15 0;
#X connect 15 0 30 0;
#X connect 15 1 31 0;
#X connect 15 2 32 0;
#X connect 15 3 33 0;
#X connect 16 0 24 0;
#X connect 16 0 34 1;
#X connect 16 0 35 1;
#X connect 16 0 36 1;
#X connect 17 0 34 0;
#X connect 18 0 35 0;
#X connect 19 0 36 0;
#X connect 24 0 38 0;
#X connect 25 0 39 0;
#X connect 26 0 40 0;
#X connect 27 0 41 0;
#X connect 28 0 37 0;
#X connect 29 0 28 0;
#X connect 30 0 16 0;
#X connect 31 0 17 0;
#X connect 32 0 18 0;
#X connect 33 0 19 0;
#X connect 34 0 25 0;
#X connect 35 0 26 0;
#X connect 36 0 27 0;
#X connect 37 0 17 0;
#X connect 37 0 18 0;
#X connect 37 0 19 0;
#X connect 37 1 16 0;
#X connect 38 0 20 0;
#X connect 39 0 21 0;
#X connect 40 0 22 0;
#X connect 41 0 23 0;
#X connect 42 0 38 1;
#X connect 42 0 39 1;
#X connect 42 0 40 1;
#X connect 42 0 41 1;
#X coords 0 -1 1 1 80 20 1 200 300;
