#N canvas 960 0 950 988 10;
#X obj 83 382 dac~;
#X obj 92 295 osc~;
#X obj 92 266 mtof;
#X floatatom 128 266 5 0 0 0 - - -;
#X floatatom 92 213 5 0 0 0 - - -;
#X obj 92 237 + 48;
#X floatatom 129 237 5 0 16 0 - - -;
#X obj 93 74 f;
#X obj 129 74 + 1;
#X obj 79 15 bng 15 250 50 0 empty empty empty 17 7 0 10 -262144 -1
-1;
#X floatatom 93 107 5 0 0 0 - - -;
#X obj 92 131 % 16;
#X floatatom 92 158 5 0 0 0 - - -;
#X obj 93 44 metro 100;
#X msg 108 12 stop;
#X obj 93 349 *~;
#X floatatom 108 323 5 0 1 0 - - -;
#X msg 194 33 \; notes 0 12 3 5 7 8 10 12 11 12 3 5 7 8 10 12 15;
#X obj 194 13 table notes 16;
#X obj 92 186 tabread notes;
#X connect 1 0 15 0;
#X connect 2 0 1 0;
#X connect 2 0 3 0;
#X connect 4 0 5 0;
#X connect 5 0 6 0;
#X connect 5 0 2 0;
#X connect 7 0 8 0;
#X connect 7 0 10 0;
#X connect 8 0 7 1;
#X connect 9 0 13 0;
#X connect 10 0 11 0;
#X connect 11 0 12 0;
#X connect 12 0 19 0;
#X connect 13 0 7 0;
#X connect 14 0 13 0;
#X connect 15 0 0 0;
#X connect 15 0 0 1;
#X connect 16 0 15 1;
#X connect 19 0 4 0;
