#N canvas 35 59 813 685 12;
#X obj 259 601 dac~;
#X floatatom 4 328 5 0 0 0 - - -;
#X obj 7 547 vu 15 120 empty empty -1 -8 0 10 -66577 -1 1 0;
#X obj 319 507 tgl 15 0 empty empty empty 17 7 0 10 -199420 -1 -1 1
1;
#X obj 260 540 *~;
#X obj -1 515 pvu~;
#X floatatom 87 328 5 0 0 0 - - -;
#X floatatom 174 327 5 0 0 0 - - -;
#X floatatom 258 327 5 0 0 0 - - -;
#X floatatom 349 329 5 0 0 0 - - -;
#X floatatom 436 328 5 0 0 0 - - -;
#X floatatom 528 325 5 0 0 0 - - -;
#X floatatom 622 326 5 0 0 0 - - -;
#X obj 3 251 loadbang;
#X obj 95 256 bng 15 250 50 0 empty empty empty 17 7 0 10 -262144 -1
-1;
#X text 117 252 reset tones;
#X text 738 325 hz;
#N canvas 821 55 450 300 ding 0;
#X obj 29 109 osc~;
#X obj 99 204 *~;
#X obj 137 145 vline~;
#X floatatom 179 217 5 0 0 0 - - -;
#X obj 272 105 loadbang;
#X obj 179 188 snapshot~;
#X obj 192 164 metro 100;
#X msg 138 109 1 10 \, 0 1000 10;
#X obj 29 44 inlet;
#X text 35 75 freq;
#X text 166 77 amp;
#X obj 138 47 inlet;
#X text 220 216 monitor;
#X obj 98 256 outlet~;
#X obj 138 79 bng 15 250 50 0 empty empty empty 17 7 0 10 -262144 -1
-1;
#X connect 0 0 1 0;
#X connect 1 0 13 0;
#X connect 2 0 5 0;
#X connect 2 0 1 1;
#X connect 4 0 6 0;
#X connect 5 0 3 0;
#X connect 6 0 5 0;
#X connect 7 0 2 0;
#X connect 8 0 0 0;
#X connect 11 0 14 0;
#X connect 14 0 7 0;
#X connect 14 0 4 0;
#X restore 6 355 pd ding;
#X obj 151 159 bng 30 250 50 0 empty empty do 17 7 0 10 -217078 -1
-1;
#X obj 203 159 bng 30 250 50 0 empty empty re 17 7 0 10 -200702 -1
-1;
#X obj 256 158 bng 30 250 50 0 empty empty mi 17 7 0 10 -200256 -1
-1;
#X obj 309 158 bng 30 250 50 0 empty empty fa 17 7 0 10 -220480 -1
-1;
#X obj 368 157 bng 30 250 50 0 empty empty so 17 7 0 10 -248832 -1
-1;
#X obj 422 158 bng 30 250 50 0 empty empty la 17 7 0 10 -260983 -1
-1;
#X obj 480 158 bng 30 250 50 0 empty empty tea 17 7 0 10 -260775 -1
-1;
#X obj 534 157 bng 30 250 50 0 empty empty do2222 17 7 0 10 -245736
-1 -1;
#N canvas 821 55 450 300 ding 0;
#X obj 29 109 osc~;
#X obj 99 204 *~;
#X obj 137 145 vline~;
#X floatatom 179 217 5 0 0 0 - - -;
#X obj 272 105 loadbang;
#X obj 179 188 snapshot~;
#X obj 192 164 metro 100;
#X msg 138 109 1 10 \, 0 1000 10;
#X obj 29 44 inlet;
#X text 35 75 freq;
#X text 166 77 amp;
#X obj 138 47 inlet;
#X text 220 216 monitor;
#X obj 98 256 outlet~;
#X obj 138 79 bng 15 250 50 0 empty empty empty 17 7 0 10 -262144 -1
-1;
#X connect 0 0 1 0;
#X connect 1 0 13 0;
#X connect 2 0 5 0;
#X connect 2 0 1 1;
#X connect 4 0 6 0;
#X connect 5 0 3 0;
#X connect 6 0 5 0;
#X connect 7 0 2 0;
#X connect 8 0 0 0;
#X connect 11 0 14 0;
#X connect 14 0 7 0;
#X connect 14 0 4 0;
#X restore 86 354 pd ding;
#N canvas 821 55 450 300 ding 0;
#X obj 29 109 osc~;
#X obj 99 204 *~;
#X obj 137 145 vline~;
#X floatatom 179 217 5 0 0 0 - - -;
#X obj 272 105 loadbang;
#X obj 179 188 snapshot~;
#X obj 192 164 metro 100;
#X msg 138 109 1 10 \, 0 1000 10;
#X obj 29 44 inlet;
#X text 35 75 freq;
#X text 166 77 amp;
#X obj 138 47 inlet;
#X text 220 216 monitor;
#X obj 98 256 outlet~;
#X obj 138 79 bng 15 250 50 0 empty empty empty 17 7 0 10 -262144 -1
-1;
#X connect 0 0 1 0;
#X connect 1 0 13 0;
#X connect 2 0 5 0;
#X connect 2 0 1 1;
#X connect 4 0 6 0;
#X connect 5 0 3 0;
#X connect 6 0 5 0;
#X connect 7 0 2 0;
#X connect 8 0 0 0;
#X connect 11 0 14 0;
#X connect 14 0 7 0;
#X connect 14 0 4 0;
#X restore 174 355 pd ding;
#N canvas 821 55 450 300 ding 0;
#X obj 29 109 osc~;
#X obj 99 204 *~;
#X obj 137 145 vline~;
#X floatatom 179 217 5 0 0 0 - - -;
#X obj 272 105 loadbang;
#X obj 179 188 snapshot~;
#X obj 192 164 metro 100;
#X msg 138 109 1 10 \, 0 1000 10;
#X obj 29 44 inlet;
#X text 35 75 freq;
#X text 166 77 amp;
#X obj 138 47 inlet;
#X text 220 216 monitor;
#X obj 98 256 outlet~;
#X obj 138 79 bng 15 250 50 0 empty empty empty 17 7 0 10 -262144 -1
-1;
#X connect 0 0 1 0;
#X connect 1 0 13 0;
#X connect 2 0 5 0;
#X connect 2 0 1 1;
#X connect 4 0 6 0;
#X connect 5 0 3 0;
#X connect 6 0 5 0;
#X connect 7 0 2 0;
#X connect 8 0 0 0;
#X connect 11 0 14 0;
#X connect 14 0 7 0;
#X connect 14 0 4 0;
#X restore 260 356 pd ding;
#N canvas 821 55 450 300 ding 0;
#X obj 29 109 osc~;
#X obj 99 204 *~;
#X obj 137 145 vline~;
#X floatatom 179 217 5 0 0 0 - - -;
#X obj 272 105 loadbang;
#X obj 179 188 snapshot~;
#X obj 192 164 metro 100;
#X msg 138 109 1 10 \, 0 1000 10;
#X obj 29 44 inlet;
#X text 35 75 freq;
#X text 166 77 amp;
#X obj 138 47 inlet;
#X text 220 216 monitor;
#X obj 98 256 outlet~;
#X obj 138 79 bng 15 250 50 0 empty empty empty 17 7 0 10 -262144 -1
-1;
#X connect 0 0 1 0;
#X connect 1 0 13 0;
#X connect 2 0 5 0;
#X connect 2 0 1 1;
#X connect 4 0 6 0;
#X connect 5 0 3 0;
#X connect 6 0 5 0;
#X connect 7 0 2 0;
#X connect 8 0 0 0;
#X connect 11 0 14 0;
#X connect 14 0 7 0;
#X connect 14 0 4 0;
#X restore 350 354 pd ding;
#N canvas 821 55 450 300 ding 0;
#X obj 29 109 osc~;
#X obj 99 204 *~;
#X obj 137 145 vline~;
#X floatatom 179 217 5 0 0 0 - - -;
#X obj 272 105 loadbang;
#X obj 179 188 snapshot~;
#X obj 192 164 metro 100;
#X msg 138 109 1 10 \, 0 1000 10;
#X obj 29 44 inlet;
#X text 35 75 freq;
#X text 166 77 amp;
#X obj 138 47 inlet;
#X text 220 216 monitor;
#X obj 98 256 outlet~;
#X obj 138 79 bng 15 250 50 0 empty empty empty 17 7 0 10 -262144 -1
-1;
#X connect 0 0 1 0;
#X connect 1 0 13 0;
#X connect 2 0 5 0;
#X connect 2 0 1 1;
#X connect 4 0 6 0;
#X connect 5 0 3 0;
#X connect 6 0 5 0;
#X connect 7 0 2 0;
#X connect 8 0 0 0;
#X connect 11 0 14 0;
#X connect 14 0 7 0;
#X connect 14 0 4 0;
#X restore 436 356 pd ding;
#N canvas 821 55 450 300 ding 0;
#X obj 29 109 osc~;
#X obj 99 204 *~;
#X obj 137 145 vline~;
#X floatatom 179 217 5 0 0 0 - - -;
#X obj 272 105 loadbang;
#X obj 179 188 snapshot~;
#X obj 192 164 metro 100;
#X msg 138 109 1 10 \, 0 1000 10;
#X obj 29 44 inlet;
#X text 35 75 freq;
#X text 166 77 amp;
#X obj 138 47 inlet;
#X text 220 216 monitor;
#X obj 98 256 outlet~;
#X obj 138 79 bng 15 250 50 0 empty empty empty 17 7 0 10 -262144 -1
-1;
#X connect 0 0 1 0;
#X connect 1 0 13 0;
#X connect 2 0 5 0;
#X connect 2 0 1 1;
#X connect 4 0 6 0;
#X connect 5 0 3 0;
#X connect 6 0 5 0;
#X connect 7 0 2 0;
#X connect 8 0 0 0;
#X connect 11 0 14 0;
#X connect 14 0 7 0;
#X connect 14 0 4 0;
#X restore 530 355 pd ding;
#N canvas 821 55 450 300 ding 0;
#X obj 29 109 osc~;
#X obj 99 204 *~;
#X obj 137 145 vline~;
#X floatatom 179 217 5 0 0 0 - - -;
#X obj 272 105 loadbang;
#X obj 179 188 snapshot~;
#X obj 192 164 metro 100;
#X msg 138 109 1 10 \, 0 1000 10;
#X obj 29 44 inlet;
#X text 35 75 freq;
#X text 166 77 amp;
#X obj 138 47 inlet;
#X text 220 216 monitor;
#X obj 98 256 outlet~;
#X obj 138 79 bng 15 250 50 0 empty empty empty 17 7 0 10 -262144 -1
-1;
#X connect 0 0 1 0;
#X connect 1 0 13 0;
#X connect 2 0 5 0;
#X connect 2 0 1 1;
#X connect 4 0 6 0;
#X connect 5 0 3 0;
#X connect 6 0 5 0;
#X connect 7 0 2 0;
#X connect 8 0 0 0;
#X connect 11 0 14 0;
#X connect 14 0 7 0;
#X connect 14 0 4 0;
#X restore 624 356 pd ding;
#X obj 47 328 r do;
#X obj 130 327 r re;
#X obj 217 328 r mi;
#X obj 305 326 r fa;
#X obj 394 329 r so;
#X obj 482 327 r la;
#X obj 576 327 r tea;
#X obj 669 326 r do2222;
#N canvas 811 406 450 300 settits 1;
#X msg 11 119 261.6;
#X msg 67 119 293.7;
#X msg 126 119 329.6;
#X msg 184 121 349.2;
#X msg 244 122 392;
#X msg 294 123 440;
#X msg 347 124 493.9;
#X msg 402 123 523.3;
#X obj 10 70 bng 15 250 50 0 empty empty empty 17 7 0 10 -262144 -1
-1;
#X text 29 64 become the west;
#X obj 10 28 inlet;
#X obj 11 201 outlet;
#X obj 21 211 outlet;
#X obj 31 221 outlet;
#X obj 41 231 outlet;
#X obj 51 241 outlet;
#X obj 61 251 outlet;
#X obj 261 254 outlet;
#X obj 168 252 outlet;
#X connect 0 0 11 0;
#X connect 1 0 12 0;
#X connect 2 0 13 0;
#X connect 3 0 14 0;
#X connect 4 0 15 0;
#X connect 5 0 16 0;
#X connect 6 0 18 0;
#X connect 7 0 17 0;
#X connect 8 0 0 0;
#X connect 8 0 1 0;
#X connect 8 0 2 0;
#X connect 8 0 3 0;
#X connect 8 0 4 0;
#X connect 8 0 5 0;
#X connect 8 0 6 0;
#X connect 8 0 7 0;
#X connect 10 0 8 0;
#X restore 4 278 pd settits;
#X obj 150 200 s do;
#X obj 203 199 s re;
#X obj 256 200 s mi;
#X obj 312 198 s fa;
#X obj 373 198 s so;
#X obj 429 197 s la;
#X obj 482 197 s tea;
#X obj 542 197 s do2222;
#X text 335 501 (|);
#X obj 259 506 +~;
#X floatatom 404 504 5 0 127 0 - - -;
#X obj 340 558 /;
#X floatatom 341 596 5 0 0 0 - - -;
#X msg 378 539 127;
#X obj 419 540 loadbang;
#X obj 308 531 *;
#X obj 369 506 bng 15 250 50 0 empty empty empty 17 7 0 10 -262144
-1 -1;
#X obj 421 472 loadbang;
#X obj 333 6 key;
#X floatatom 332 38 5 0 0 0 - - -;
#X obj 121 115 sel 97;
#X obj 192 113 sel 115;
#X obj 267 111 sel 100;
#X obj 346 110 sel 102;
#X obj 421 111 sel 103;
#X obj 496 110 sel 104;
#X obj 568 108 sel 106;
#X obj 645 108 sel 107;
#X text 445 501 volume;
#X msg 383 473 32;
#X connect 1 0 17 0;
#X connect 3 0 57 0;
#X connect 4 0 5 0;
#X connect 4 0 0 0;
#X connect 4 0 0 1;
#X connect 5 0 2 0;
#X connect 5 1 2 1;
#X connect 6 0 26 0;
#X connect 7 0 27 0;
#X connect 8 0 28 0;
#X connect 9 0 29 0;
#X connect 10 0 30 0;
#X connect 11 0 31 0;
#X connect 12 0 32 0;
#X connect 13 0 41 0;
#X connect 14 0 41 0;
#X connect 17 0 51 0;
#X connect 18 0 42 0;
#X connect 19 0 43 0;
#X connect 20 0 44 0;
#X connect 21 0 45 0;
#X connect 22 0 46 0;
#X connect 23 0 47 0;
#X connect 24 0 48 0;
#X connect 25 0 49 0;
#X connect 26 0 51 0;
#X connect 27 0 51 0;
#X connect 28 0 51 0;
#X connect 29 0 51 0;
#X connect 30 0 51 0;
#X connect 31 0 51 0;
#X connect 32 0 51 0;
#X connect 33 0 17 1;
#X connect 34 0 26 1;
#X connect 35 0 27 1;
#X connect 36 0 28 1;
#X connect 37 0 29 1;
#X connect 38 0 30 1;
#X connect 39 0 31 1;
#X connect 40 0 32 1;
#X connect 41 0 1 0;
#X connect 41 1 6 0;
#X connect 41 2 7 0;
#X connect 41 3 8 0;
#X connect 41 4 9 0;
#X connect 41 5 10 0;
#X connect 41 6 11 0;
#X connect 41 7 12 0;
#X connect 51 0 4 0;
#X connect 52 0 57 1;
#X connect 52 0 58 0;
#X connect 53 0 54 0;
#X connect 54 0 4 1;
#X connect 55 0 53 1;
#X connect 56 0 55 0;
#X connect 57 0 53 0;
#X connect 58 0 57 0;
#X connect 59 0 71 0;
#X connect 60 0 61 0;
#X connect 61 0 62 0;
#X connect 61 0 63 0;
#X connect 61 0 64 0;
#X connect 61 0 65 0;
#X connect 61 0 66 0;
#X connect 61 0 67 0;
#X connect 61 0 68 0;
#X connect 61 0 69 0;
#X connect 62 0 18 0;
#X connect 63 0 19 0;
#X connect 64 0 20 0;
#X connect 65 0 21 0;
#X connect 66 0 22 0;
#X connect 67 0 23 0;
#X connect 68 0 24 0;
#X connect 69 0 25 0;
#X connect 71 0 52 0;
